<svg width="6" height="12" viewBox="0 0 6 12" fill="none" xmlns="http://www.w3.org/2000/svg" class="rating_star__combined-first__bCYXk"><path d="M6 0C5.66464 0 5.36385 0.221406 5.25563 0.556603L4.16494 3.93976H0.785451C0.447341 3.93976 0.147342 4.1661 0.0403283 4.50151C-0.0664839 4.83691 0.0436668 5.20618 0.314035 5.41839L3.02968 7.5489L2.04912 10.9409C1.95232 11.2759 2.06915 11.6382 2.33991 11.8436C2.61087 12.0489 2.97626 12.0524 3.25055 11.852L5.99977 9.84288L6 0Z" fill="#000"></path><path d="M6.03547 0.000854837C5.68577 -0.0157781 5.36769 0.21174 5.25554 0.558754L4.16503 3.94116H0.785267C0.44715 3.94116 0.147144 4.16745 0.0403293 4.5028C-0.0664853 4.83812 0.0436671 5.20731 0.314041 5.41963L3.02954 7.54967L2.04916 10.9409C1.95236 11.2758 2.06919 11.6381 2.34016 11.8436C2.61112 12.0489 2.97652 12.0524 3.25082 11.852L5.9999 9.84336L8.74918 11.852C9.02348 12.0522 9.38906 12.0489 9.65985 11.8436C9.93061 11.6383 10.0474 11.276 9.95084 10.9409L8.97046 7.54967L11.686 5.41963C11.9563 5.20751 12.0665 4.83812 11.9597 4.5028C11.8529 4.16747 11.5526 3.94116 11.2147 3.94116H7.83477L6.74425 0.558754C6.64058 0.237803 6.35921 0.0162571 6.03561 0.000854837H6.03547Z" fill="#000"></path></svg>