<svg width="12" height="12" viewBox="0 0 12 12" fill="none" xmlns="http://www.w3.org/2000/svg"><path d="M6.03547 0.000854837C5.68577 -0.0157781 5.36769 0.21174 5.25554 0.558754L4.16503 3.94116H0.785267C0.44715 3.94116 0.147144 4.16745 0.0403293 4.5028C-0.0664853 4.83812 0.0436671 5.20731 0.314041 5.41963L3.02954 7.54967L2.04916 10.9409C1.95236 11.2758 2.06919 11.6381 2.34016 11.8436C2.61112 12.0489 2.97652 12.0524 3.25082 11.852L5.9999 9.84336L8.74918 11.852C9.02348 12.0522 9.38906 12.0489 9.65985 11.8436C9.93061 11.6383 10.0474 11.276 9.95084 10.9409L8.97046 7.54967L11.686 5.41963C11.9563 5.20751 12.0665 4.83812 11.9597 4.5028C11.8529 4.16747 11.5526 3.94116 11.2147 3.94116H7.83477L6.74425 0.558754C6.64058 0.237803 6.35921 0.0162571 6.03561 0.000854837H6.03547Z" fill="rgba(0,0,0,0)"></path><path fill-rule="evenodd" clip-rule="evenodd" d="M6.74425 0.558754L7.83477 3.94116H11.2147C11.5526 3.94116 11.8529 4.16747 11.9597 4.5028C12.0665 4.83812 11.9563 5.20751 11.686 5.41963L8.97046 7.54967L9.95084 10.9409C10.0474 11.276 9.93061 11.6383 9.65985 11.8436C9.38906 12.0489 9.02348 12.0522 8.74918 11.852L5.9999 9.84336L3.25082 11.852C2.97652 12.0524 2.61112 12.0489 2.34016 11.8436C2.06919 11.6381 1.95236 11.2758 2.04916 10.9409L3.02954 7.54967L0.314041 5.41963C0.0436671 5.20731 -0.0664853 4.83812 0.0403293 4.5028C0.147144 4.16745 0.44715 3.94116 0.785267 3.94116H4.16503L5.25554 0.558754C5.36769 0.21174 5.68577 -0.0157781 6.03547 0.000854837C6.35907 0.0162571 6.64058 0.237803 6.74425 0.558754ZM3.16706 10.6747L5.99988 8.60488L8.83295 10.6748L7.82242 7.17925L10.6757 4.94116H7.10649L5.9999 1.5089L4.89331 4.94116H1.32434L4.17758 7.17925L3.16706 10.6747Z" fill="black"></path></svg>